<svg width="512" height="512" xmlns="http://www.w3.org/2000/svg">

 <g>
  <title>background</title>
  <rect fill="none" id="canvas_background" height="402" width="582" y="-1" x="-1"/>
 </g>
 <g>
  <title>Layer 1</title>
  <path id="svg_2" fill="#901108" d="m185.9,272.4c-57.4,0 -104.1,-46.7 -104.1,-104.1s46.7,-104.1 104.1,-104.1s104.1,46.7 104.1,104.1s-46.7,104.1 -104.1,104.1zm0,-187.1c-45.8,0 -83,37.2 -83,83s37.2,83 83,83s83,-37.2 83,-83s-37.2,-83 -83,-83z"/>
  <path id="svg_3" fill="#901108" d="m361.3,447.8c-5.8,0 -10.5,-4.7 -10.5,-10.5c0,-90.9 -73.9,-164.8 -164.8,-164.8s-164.9,73.8 -164.9,164.7c0,5.8 -4.7,10.5 -10.5,10.5s-10.6,-4.7 -10.6,-10.5c0,-102.5 83.4,-185.9 185.9,-185.9s185.9,83.4 185.9,185.9c0,5.8 -4.7,10.6 -10.5,10.6z"/>
  <path id="svg_4" fill="#901108" d="m501.5,239.7l-163.7,0c-5.8,0 -10.5,-4.7 -10.5,-10.5s4.7,-10.5 10.5,-10.5l163.7,0c5.8,0 10.5,4.7 10.5,10.5s-4.7,10.5 -10.5,10.5z"/>
  <path id="svg_5" fill="#901108" d="m419.6,321.5c-5.8,0 -10.5,-4.7 -10.5,-10.5l0,-163.7c0,-5.8 4.7,-10.5 10.5,-10.5c5.8,0 10.5,4.7 10.5,10.5l0,163.7c0.1,5.8 -4.7,10.5 -10.5,10.5z"/>
 </g>
</svg>