<svg width="128" height="128" xmlns="http://www.w3.org/2000/svg">

 <g>
  <title>background</title>
  <rect fill="none" id="canvas_background" height="402" width="582" y="-1" x="-1"/>
 </g>
 <g>
  <title>Layer 1</title>
  <path id="svg_1" fill="#ffffff" d="m63,7.8c-20.3,0 -36.8,16.5 -36.8,36.8c0,36.8 36.8,58.7 36.8,58.7s36.8,-19.3 36.8,-58.7c0,-20.4 -16.5,-36.8 -36.8,-36.8zm0.1,90.7c-7.3,-5 -32.9,-24.7 -32.9,-54c0,-18.1 14.7,-32.8 32.8,-32.8s32.8,14.7 32.8,32.8c0,31.4 -25.3,49.4 -32.7,54z"/>
  <path id="svg_2" fill="#ffffff" d="m63,21c13.2,0 24,10.8 24,24s-10.8,24 -24,24s-24,-10.8 -24,-24s10.8,-24 24,-24m0,-2c-14.4,0 -26,11.6 -26,26s11.6,26 26,26s26,-11.6 26,-26s-11.6,-26 -26,-26l0,0z"/>
  <path id="svg_3" fill="#ffffff" d="m89.5,81.8c-0.4,0.6 -0.8,1.2 -1.3,1.7c15.1,3.3 24.2,9.3 24.2,15c0,8.4 -19.8,17.5 -49.4,17.5s-49.4,-9 -49.4,-17.5c0,-5.8 9.3,-11.8 24.6,-15.1c-0.4,-0.6 -0.9,-1.1 -1.3,-1.7c-15.2,3.4 -25.3,9.6 -25.3,16.8c0,10.8 23,19.5 51.4,19.5s51.4,-8.7 51.4,-19.5c0.1,-7.1 -9.9,-13.3 -24.9,-16.7z"/>
 </g>
</svg>